/* XPM */
static char *_8e3344f20214f62a9d45c65f0d9d62fXA0yvYjcAlyn2tsc[] = {
/* columns rows colors chars-per-pixel */
"32 32 18 1 ",
"  c #3B2717",
". c #433119",
"X c #C7C5A7",
"o c #A1957A",
"O c #9A8B6E",
"+ c #948465",
"@ c #4D401F",
"# c #85755C",
"$ c #7A6E58",
"% c #916A3B",
"& c #78652B",
"* c #4D381C",
"= c #736244",
"- c #664839",
"; c #C3C1A2",
": c #5E352D",
"> c #C5A260",
", c #595652",
/* pixels */
"                                ",
".XoOoO+++.XoOoO++++++O.XoOoO++++",
"@o######$@o##########$@o########",
"@O######$@O##########$@O####%###",
"@o#$#$#$%@o###$##$#$#%@o##$#$##$",
"@O%$#$%&%@O#%#$#$%$#%&@O$##$%$%$",
"*+&%%%&&&*+#&%$%$&%%&&*+$%%%&%&%",
"**@*@@*@*.*@*@@@@@@@@*.*@@@@*@**",
"#=-=;oO+O+=:#;oOoO+O++=:;>oOOO++",
"#$=;>+#####-;OO+#####$$->O###$#$",
"$=-o+#$#$$=-oO+##$#$=$=--##$$$$=",
"==-O+##$$==-O+##$#$=$=,-@-,$=$==",
"--@+##$$=$=-+####$$$=$=-@@-@----",
"#-@##$$=$=,--###$$$=$=,:-;>oOOO+",
"$=-@##$$=,,@@-=##$===,@-OoO+####",
"=$=$@-,-+++oO$-==,=,,@@-#O+#$#$$",
"$=$=-@=>oO+#$=$-@@@--oO$--##$$$=",
"===-@=;>O+###$===@>;o+##$=-#$$=$",
",--@-+>O+##$=$=$=-;o+##$==---=,=",
"oO+#-#O+####$=$=,-o+##$=$,-;O+##",
"###=-$##$=$==$=,-@+##$=$=-;Oo+++",
"$=$==--$$$$$$=,-@@-==#$==-O+####",
"$$=$==@@-====--O#-@--$==,@+#$#$$",
"$===,,+oO-@@-oO##$$-@@--@@@-===$",
"==,,+oO+++@>OO#$$$=,@-OoOO++---=",
"++>oO+####-O##$$$=,-->+#####$=,,",
">O+##$#$$$=-$==,---@;+##$$=$==-;",
"O+##$$$$=$=,@---=O+-O##$$=$==,@>",
"--===#$=$=,--=oO+##$--$===,--@@@",
";>----===,@=>O+#####$@-----=oO+,",
">OO+O$--@@=;++###$$$$-@-=oO+###,",
"+$$##$=$=@>O+###$$$===@=>+##$=$-"
};
