/* XPM */
static char *_88d11e9966d4418b9f6e31849721230tDN0ZAnkF63EdJHG[] = {
/* columns rows colors chars-per-pixel */
"32 32 60 1 ",
"  c None",
". c #301807",
"X c #3C120A",
"o c #450E00",
"O c #54331A",
"+ c #7B3314",
"@ c #39550E",
"# c #405E15",
"$ c #405E16",
"% c #636B11",
"& c #813A29",
"* c #BF511C",
"= c #8D472A",
"- c #9D5B27",
"; c #B35830",
": c #8A6431",
"> c #B7733D",
", c #845F44",
"< c #778E29",
"1 c #768E2A",
"2 c #8A8008",
"3 c #9E8311",
"4 c #818A24",
"5 c #818B24",
"6 c #858D2D",
"7 c #94A133",
"8 c #9DB038",
"9 c #9EB038",
"0 c #E98902",
"q c #F19C11",
"w c #C78524",
"e c #889E57",
"r c #AE8A5A",
"t c #CC8141",
"y c #CC8F5D",
"u c #E39653",
"i c #DFA653",
"p c #DFA26E",
"a c #CCA777",
"s c #C9A57B",
"d c #D0A17E",
"f c #E3AF6F",
"g c #E8B97D",
"h c #FFE140",
"j c #C9C762",
"k c #D7DF7F",
"l c #DAB58C",
"z c #F1C48A",
"x c #D7E080",
"c c #E7CFA3",
"v c #F8D7A3",
"b c #F9DDBB",
"n c #FBDEBA",
"m c #FFEABE",
"M c #F1DBC4",
"N c #FFE8CD",
"B c #FAECD0",
"V c #FCF3DF",
"C c #FFFBF3",
"Z c white",
/* pixels */
"                                ",
"                                ",
"                                ",
"                                ",
"           ,,,,,,,,,,           ",
"        ,,rcCCCCCCCCcr,,        ",
"      O:cCCCCCCCCCCCCCCc,O      ",
"     OcCC++;;aaaaaacNCCCCcO     ",
"    OcC+>vmzp>;aaaaaaaacCCcO    ",
"   ,cC+vmmppzzp>;gVVbcaacCCc,   ",
"   rC+mmmzppzzzzp>;gBVBbcaCCr   ",
"  .cC+mymmmmvzzzzpp>+gBVccaCc.  ",
"  rCC;vmmzymmvzzp>pp>+ogBBaCCr  ",
" .cCC;tfvmmmmmpvmmmmvzf+oBcCCc. ",
" .CCc=mmffvmmvvmmvmmmmvzf+BcCC. ",
" .CCa%Xzmzffvmmmvmmmf&-&-foaCC. ",
" .CC6j8X;pmmftvvvmzw&-w2w3foCC. ",
" .Cek85%@X;zmzftvmwiiiq3qwf+CC. ",
" .Z68j8884%X;zmvtz&hq*uw*-foZZ. ",
" .ZZ6%k87k1%@X;pvp&qw22-&&foZZ. ",
" .BZZb%jk178%%@=pm-03iwq&foBZB. ",
"  .ZZcB6#%88717#=pm-22w-focZZ.  ",
"  .BZBbd#jkk%k8%so+mmzf+ocCZB.  ",
"   ,ZZBc%66%l6#ssssoooobcBZZ,   ",
"   .BZCBcCCCCCCMCCCCCCCcBCZB.   ",
"    ,BCZBcbVCCCCCCCCVbcBZCB,    ",
"     .BCCCZbbbbbbbbbbZZZZB.     ",
"      .,BZZZZZZZZZZZZZZB,.      ",
"        ..,BZZZZZZZZB,..        ",
"           ..........           ",
"                                ",
"                                "
};
