/* XPM */
static char *_d010b68b5374ced8ed89702ba19b4c3veD9udvJRe3i85lZ[] = {
/* columns rows colors chars-per-pixel */
"32 32 5 1 ",
"  c None",
". c #40264D",
"X c #413D4F",
"o c #58526A",
"O c #7A7290",
/* pixels */
"................................",
"..OOOOOOXOOOOOOXOOOOOOOXOOOOOO..",
".OOoooooXooooooXoooooooXoooooOO.",
".OooooooXooooooXoooooooXooooooO.",
".OooooooXooooooXoooooooXooooooO.",
".OoooXXXXXXXXXXXXXXXXXXXXXXoooO.",
".OoooX                    XoooO.",
".OoooX                    XoooO.",
".XXXXX                    XXXXX.",
".OoooX                    XoooO.",
".OoooX                    XoooO.",
".OoooX                    XoooO.",
".OoooX                    XoooO.",
".OoooX                    XoooO.",
".OoooX                    XoooO.",
".XXXXX                    XXXXX.",
".OoooX                    XoooO.",
".OoooX                    XoooO.",
".OoooX                    XoooO.",
".OoooX                    XoooO.",
".OoooX                    XoooO.",
".OoooX                    XoooO.",
".XXXXX                    XXXXX.",
".OoooX                    XoooO.",
".OoooX                    XoooO.",
".OoooX                    XoooO.",
".OoooXXXXXXXXXXXXXXXXXXXXXXoooO.",
".OooooooXooooooXoooooooXooooooO.",
".OOoooooXooooooXoooooooXoooooOO.",
".XOOOOOOXOOOOOOXOOOOOOOXOOOOOOX.",
".XXXXXXXXXXXXXXXXXXXXXXXXXXXXXX.",
"..XXXXXXXXXXXXXXXXXXXXXXXXXXXX.."
};
